<svg width="16" height="16" viewBox="0 0 16 16" fill="none" xmlns="http://www.w3.org/2000/svg">
<path d="M2.5 6.25C2.91421 6.25 3.25 5.91421 3.25 5.5C3.25 5.08579 2.91421 4.75 2.5 4.75C2.08579 4.75 1.75 5.08579 1.75 5.5C1.75 5.91421 2.08579 6.25 2.5 6.25Z" stroke="currentColor" stroke-width="1.5" stroke-linecap="round" stroke-linejoin="round"/>
<path d="M8 6.25C8.41421 6.25 8.75 5.91421 8.75 5.5C8.75 5.08579 8.41421 4.75 8 4.75C7.58579 4.75 7.25 5.08579 7.25 5.5C7.25 5.91421 7.58579 6.25 8 6.25Z" stroke="currentColor" stroke-width="1.5" stroke-linecap="round" stroke-linejoin="round"/>
<path d="M13.5 6.25C13.9142 6.25 14.25 5.91421 14.25 5.5C14.25 5.08579 13.9142 4.75 13.5 4.75C13.0858 4.75 12.75 5.08579 12.75 5.5C12.75 5.91421 13.0858 6.25 13.5 6.25Z" stroke="currentColor" stroke-width="1.5" stroke-linecap="round" stroke-linejoin="round"/>
<path d="M2.5 11.25C2.91421 11.25 3.25 10.9142 3.25 10.5C3.25 10.0858 2.91421 9.75 2.5 9.75C2.08579 9.75 1.75 10.0858 1.75 10.5C1.75 10.9142 2.08579 11.25 2.5 11.25Z" stroke="currentColor" stroke-width="1.5" stroke-linecap="round" stroke-linejoin="round"/>
<path d="M8 11.25C8.41421 11.25 8.75 10.9142 8.75 10.5C8.75 10.0858 8.41421 9.75 8 9.75C7.58579 9.75 7.25 10.0858 7.25 10.5C7.25 10.9142 7.58579 11.25 8 11.25Z" stroke="currentColor" stroke-width="1.5" stroke-linecap="round" stroke-linejoin="round"/>
<path d="M13.5 11.25C13.9142 11.25 14.25 10.9142 14.25 10.5C14.25 10.0858 13.9142 9.75 13.5 9.75C13.0858 9.75 12.75 10.0858 12.75 10.5C12.75 10.9142 13.0858 11.25 13.5 11.25Z" stroke="currentColor" stroke-width="1.5" stroke-linecap="round" stroke-linejoin="round"/>
</svg>
